<svg width="1200" height="630" viewBox="0 0 1200 630" role="img" xmlns="http://www.w3.org/2000/svg">
  <title>Pancitapp: De Artifact a React Native</title>
  <desc>Evolución de Pancitapp desde Artifact de Claude hasta app React Native con infraestructura propia</desc>

  <defs>
    <marker id="arr" viewBox="0 0 10 10" refX="8" refY="5" markerWidth="6" markerHeight="6" orient="auto-start-reverse">
      <path d="M2 1L8 5L2 9" fill="none" stroke="#5a9e6e" stroke-width="1.5" stroke-linecap="round" stroke-linejoin="round"/>
    </marker>
  </defs>

  <!-- Background -->
  <rect width="1200" height="630" fill="#162b1c"/>

  <!-- Subtle dot grid -->
  <g opacity="0.15">
    <circle cx="80" cy="80" r="1.5" fill="#5a9e6e"/>
    <circle cx="160" cy="80" r="1.5" fill="#5a9e6e"/>
    <circle cx="240" cy="80" r="1.5" fill="#5a9e6e"/>
    <circle cx="80" cy="160" r="1.5" fill="#5a9e6e"/>
    <circle cx="160" cy="160" r="1.5" fill="#5a9e6e"/>
    <circle cx="240" cy="160" r="1.5" fill="#5a9e6e"/>
    <circle cx="80" cy="240" r="1.5" fill="#5a9e6e"/>
    <circle cx="160" cy="240" r="1.5" fill="#5a9e6e"/>
    <circle cx="240" cy="240" r="1.5" fill="#5a9e6e"/>
    <circle cx="80" cy="320" r="1.5" fill="#5a9e6e"/>
    <circle cx="160" cy="320" r="1.5" fill="#5a9e6e"/>
    <circle cx="80" cy="400" r="1.5" fill="#5a9e6e"/>
    <circle cx="160" cy="400" r="1.5" fill="#5a9e6e"/>
    <circle cx="80" cy="480" r="1.5" fill="#5a9e6e"/>
    <circle cx="160" cy="480" r="1.5" fill="#5a9e6e"/>
    <circle cx="80" cy="560" r="1.5" fill="#5a9e6e"/>
    <circle cx="160" cy="560" r="1.5" fill="#5a9e6e"/>
    <circle cx="240" cy="560" r="1.5" fill="#5a9e6e"/>
  </g>

  <!-- Left column divider -->
  <line x1="520" y1="60" x2="520" y2="570" stroke="#2a4e33" stroke-width="1"/>

  <!-- ===== LEFT: Typography ===== -->

  <!-- App icon circle -->
  <circle cx="100" cy="130" r="38" fill="#2d5a38"/>
  <text x="100" y="148" text-anchor="middle" font-size="36" font-family="system-ui, sans-serif">🍜</text>

  <!-- Title -->
  <text x="160" y="118" font-family="Georgia, 'Times New Roman', serif" font-size="64" font-weight="700" fill="#f0ede6">Pancitapp</text>

  <!-- Tagline -->
  <text x="100" y="200" font-family="system-ui, -apple-system, sans-serif" font-size="20" fill="#7ab88a" letter-spacing="0.5">De Artifact a React Native</text>

  <!-- Horizontal rule -->
  <line x1="100" y1="228" x2="480" y2="228" stroke="#2a4e33" stroke-width="1"/>

  <!-- Description -->
  <text x="100" y="268" font-family="system-ui, sans-serif" font-size="17" fill="#c8e0cc" line-height="1.6">Tres iteraciones. Una sola idea bien pensada.</text>
  <text x="100" y="298" font-family="system-ui, sans-serif" font-size="17" fill="#7a9e84">Cómo una app familiar pasó de ser un Artifact</text>
  <text x="100" y="322" font-family="system-ui, sans-serif" font-size="17" fill="#7a9e84">a tener infraestructura propia.</text>

  <!-- Tags -->
  <rect x="100" y="360" width="130" height="30" rx="15" fill="#1e4228"/>
  <text x="165" y="380" text-anchor="middle" font-family="system-ui, sans-serif" font-size="13" fill="#7ab88a">React Native</text>

  <rect x="242" y="360" width="105" height="30" rx="15" fill="#1e4228"/>
  <text x="294" y="380" text-anchor="middle" font-family="system-ui, sans-serif" font-size="13" fill="#7ab88a">Supabase</text>

  <rect x="359" y="360" width="105" height="30" rx="15" fill="#1e4228"/>
  <text x="411" y="380" text-anchor="middle" font-family="system-ui, sans-serif" font-size="13" fill="#7ab88a">Dokploy</text>

  <rect x="100" y="402" width="90" height="30" rx="15" fill="#1e4228"/>
  <text x="145" y="422" text-anchor="middle" font-family="system-ui, sans-serif" font-size="13" fill="#7ab88a">Gradle</text>

  <rect x="202" y="402" width="105" height="30" rx="15" fill="#1e4228"/>
  <text x="254" y="422" text-anchor="middle" font-family="system-ui, sans-serif" font-size="13" fill="#7ab88a">Forgejo</text>

  <!-- Blog credit -->
  <text x="100" y="550" font-family="system-ui, sans-serif" font-size="14" fill="#3a6048">altaskur.dev</text>

  <!-- ===== RIGHT: Three phone mockups ===== -->

  <!-- === PHONE 1: Artifact === -->
  <!-- Shadow -->
  <rect x="568" y="168" width="150" height="280" rx="18" fill="#0e1f13" opacity="0.6"/>
  <!-- Frame -->
  <rect x="560" y="160" width="150" height="280" rx="18" fill="#e8e4dc" stroke="#3a6048" stroke-width="1.5"/>
  <!-- Notch -->
  <rect x="615" y="166" width="40" height="8" rx="4" fill="#c4c0b8"/>
  <!-- Screen -->
  <rect x="566" y="180" width="138" height="248" rx="4" fill="#f5f2eb"/>
  <!-- Claude header -->
  <rect x="566" y="180" width="138" height="36" fill="#3d7a52"/>
  <text x="635" y="203" text-anchor="middle" font-family="system-ui, sans-serif" font-size="13" fill="#ffffff" font-weight="600">Claude Artifact</text>
  <!-- Recipe cards -->
  <rect x="572" y="222" width="126" height="38" rx="5" fill="#ffffff" stroke="#e0ddd5" stroke-width="0.5"/>
  <rect x="572" y="222" width="6" height="38" rx="2" fill="#5a9e6e"/>
  <text x="586" y="238" font-family="system-ui, sans-serif" font-size="10" fill="#2d4a35" font-weight="500">Lunes · Comida</text>
  <text x="586" y="252" font-family="system-ui, sans-serif" font-size="9" fill="#6a8a72">Pollo al horno con patatas</text>

  <rect x="572" y="266" width="126" height="38" rx="5" fill="#ffffff" stroke="#e0ddd5" stroke-width="0.5"/>
  <rect x="572" y="266" width="6" height="38" rx="2" fill="#5a9e6e"/>
  <text x="586" y="282" font-family="system-ui, sans-serif" font-size="10" fill="#2d4a35" font-weight="500">Lunes · Cena</text>
  <text x="586" y="296" font-family="system-ui, sans-serif" font-size="9" fill="#6a8a72">Crema de calabaza</text>

  <rect x="572" y="310" width="126" height="38" rx="5" fill="#ffffff" stroke="#e0ddd5" stroke-width="0.5"/>
  <rect x="572" y="310" width="6" height="38" rx="2" fill="#5a9e6e"/>
  <text x="586" y="326" font-family="system-ui, sans-serif" font-size="10" fill="#2d4a35" font-weight="500">Martes · Comida</text>
  <text x="586" y="340" font-family="system-ui, sans-serif" font-size="9" fill="#6a8a72">Lentejas con chorizo</text>

  <!-- Bottom nav bar -->
  <rect x="566" y="410" width="138" height="18" rx="2" fill="#e4e1d9"/>

  <!-- Label -->
  <text x="635" y="462" text-anchor="middle" font-family="system-ui, sans-serif" font-size="13" fill="#5a9e6e" font-weight="600">1. Artifact</text>
  <text x="635" y="480" text-anchor="middle" font-family="system-ui, sans-serif" font-size="11" fill="#3a6048">Solo vivía en el navegador</text>

  <!-- Arrow 1 -->
  <path d="M718 310 L748 310" stroke="#5a9e6e" stroke-width="2" fill="none" marker-end="url(#arr)"/>

  <!-- === PHONE 2: PWA === -->
  <!-- Shadow -->
  <rect x="768" y="138" width="150" height="280" rx="18" fill="#0e1f13" opacity="0.6"/>
  <!-- Frame -->
  <rect x="760" y="130" width="150" height="280" rx="18" fill="#e8e4dc" stroke="#3a6048" stroke-width="1.5"/>
  <!-- Notch -->
  <rect x="815" y="136" width="40" height="8" rx="4" fill="#c4c0b8"/>
  <!-- Screen -->
  <rect x="766" y="150" width="138" height="248" rx="4" fill="#f5f2eb"/>
  <!-- Logo area -->
  <circle cx="835" cy="205" r="28" fill="#3d7a52"/>
  <text x="835" y="198" text-anchor="middle" font-size="22" font-family="system-ui, sans-serif">🍜</text>
  <text x="835" y="218" text-anchor="middle" font-family="Georgia, serif" font-size="11" fill="#ffffff">Pancita</text>
  <!-- Tagline -->
  <text x="835" y="248" text-anchor="middle" font-family="system-ui, sans-serif" font-size="10" fill="#6a8a72">Planificador de menús</text>
  <!-- Form fields -->
  <rect x="774" y="262" width="122" height="26" rx="5" fill="#ffffff" stroke="#d0cdc5" stroke-width="1"/>
  <text x="785" y="279" font-family="system-ui, sans-serif" font-size="10" fill="#b0ad a5">Email</text>
  <rect x="774" y="295" width="122" height="26" rx="5" fill="#ffffff" stroke="#d0cdc5" stroke-width="1"/>
  <text x="785" y="312" font-family="system-ui, sans-serif" font-size="10" fill="#b0ada5">Contraseña</text>
  <!-- Button -->
  <rect x="774" y="330" width="122" height="30" rx="15" fill="#3d7a52"/>
  <text x="835" y="349" text-anchor="middle" font-family="system-ui, sans-serif" font-size="12" fill="#ffffff" font-weight="500">Entrar</text>
  <!-- Register link -->
  <text x="835" y="380" text-anchor="middle" font-family="system-ui, sans-serif" font-size="9" fill="#5a9e6e">¿No tienes cuenta? Regístrate</text>
  <!-- Bottom nav -->
  <rect x="766" y="380" width="138" height="18" rx="2" fill="#e4e1d9"/>

  <!-- Label -->
  <text x="835" y="432" text-anchor="middle" font-family="system-ui, sans-serif" font-size="13" fill="#5a9e6e" font-weight="600">2. PWA</text>
  <text x="835" y="450" text-anchor="middle" font-family="system-ui, sans-serif" font-size="11" fill="#3a6048">Válida la idea, se queda corta</text>

  <!-- Arrow 2 -->
  <path d="M918 280 L948 280" stroke="#5a9e6e" stroke-width="2" fill="none" marker-end="url(#arr)"/>

  <!-- === PHONE 3: React Native === -->
  <!-- Shadow -->
  <rect x="968" y="108" width="160" height="300" rx="20" fill="#0e1f13" opacity="0.6"/>
  <!-- Frame highlight (featured) -->
  <rect x="958" y="98" width="162" height="302" rx="20" fill="#3d7a52" opacity="0.3"/>
  <!-- Frame -->
  <rect x="960" y="100" width="160" height="300" rx="20" fill="#e8e4dc" stroke="#5a9e6e" stroke-width="2"/>
  <!-- Notch -->
  <rect x="1016" y="107" width="48" height="8" rx="4" fill="#c4c0b8"/>
  <!-- Screen -->
  <rect x="966" y="120" width="148" height="266" rx="4" fill="#f5f2eb"/>
  <!-- Header -->
  <rect x="966" y="120" width="148" height="46" fill="#2d5a38"/>
  <text x="988" y="135" font-size="18" font-family="system-ui, sans-serif">🍜</text>
  <text x="1010" y="133" font-family="system-ui, sans-serif" font-size="14" fill="#ffffff" font-weight="700">PancitAPP</text>
  <text x="988" y="154" font-family="system-ui, sans-serif" font-size="9" fill="#a8d4a8">0/14 platos · Nueva semana →</text>
  <!-- Quick access chips -->
  <rect x="970" y="172" width="56" height="22" rx="6" fill="#ddf0e8"/>
  <text x="998" y="187" text-anchor="middle" font-family="system-ui, sans-serif" font-size="9" fill="#2d5a38">Nevera</text>
  <rect x="1030" y="172" width="56" height="22" rx="6" fill="#fdeedd"/>
  <text x="1058" y="187" text-anchor="middle" font-family="system-ui, sans-serif" font-size="9" fill="#7a4a1e">Económico</text>
  <!-- Day blocks -->
  <rect x="970" y="200" width="136" height="44" rx="5" fill="#ffffff" stroke="#e0ddd5" stroke-width="0.5"/>
  <text x="978" y="215" font-family="system-ui, sans-serif" font-size="9" fill="#2d5a38" font-weight="600">Lun · Casa</text>
  <text x="978" y="229" font-family="system-ui, sans-serif" font-size="9" fill="#5a7a62">Pollo al horno · 60 min</text>
  <text x="978" y="239" font-family="system-ui, sans-serif" font-size="8" fill="#8aaa92">Crema de calabaza · 30 min</text>

  <rect x="970" y="250" width="136" height="44" rx="5" fill="#ffffff" stroke="#e0ddd5" stroke-width="0.5"/>
  <text x="978" y="265" font-family="system-ui, sans-serif" font-size="9" fill="#2d5a38" font-weight="600">Mar · Casa</text>
  <text x="978" y="279" font-family="system-ui, sans-serif" font-size="9" fill="#5a7a62">Lentejas con chorizo · 45 min</text>
  <text x="978" y="289" font-family="system-ui, sans-serif" font-size="8" fill="#8aaa92">Salmón a la plancha · 15 min</text>

  <rect x="970" y="300" width="136" height="36" rx="5" fill="#ffffff" stroke="#e0ddd5" stroke-width="0.5"/>
  <text x="978" y="315" font-family="system-ui, sans-serif" font-size="9" fill="#2d5a38" font-weight="600">Mié · Oficina</text>
  <text x="978" y="329" font-family="system-ui, sans-serif" font-size="8" fill="#8aaa92">Tupper: sobras del lunes</text>

  <!-- Bottom nav -->
  <rect x="966" y="344" width="148" height="42" rx="4" fill="#f0ede6" stroke="#e0ddd5" stroke-width="0.5"/>
  <circle cx="992" cy="365" r="12" fill="#2d5a38"/>
  <text x="992" y="362" text-anchor="middle" font-size="12" font-family="system-ui">📅</text>
  <text x="992" y="374" text-anchor="middle" font-family="system-ui, sans-serif" font-size="7" fill="#2d5a38">Menú</text>
  <text x="1040" y="362" text-anchor="middle" font-size="12" font-family="system-ui">🛒</text>
  <text x="1040" y="374" text-anchor="middle" font-family="system-ui, sans-serif" font-size="7" fill="#8aaa92">Compra</text>
  <text x="1088" y="362" text-anchor="middle" font-size="12" font-family="system-ui">📖</text>
  <text x="1088" y="374" text-anchor="middle" font-family="system-ui, sans-serif" font-size="7" fill="#8aaa92">Recetas</text>

  <!-- Label -->
  <text x="1040" y="428" text-anchor="middle" font-family="system-ui, sans-serif" font-size="13" fill="#7ab88a" font-weight="700">3. React Native</text>
  <text x="1040" y="446" text-anchor="middle" font-family="system-ui, sans-serif" font-size="11" fill="#5a9e6e">Infraestructura propia</text>

  <!-- Bottom bar -->
  <rect x="0" y="590" width="1200" height="40" fill="#0e1f13"/>
  <text x="60" y="615" font-family="system-ui, sans-serif" font-size="13" fill="#3a6048">altaskur.dev/blog</text>
  <text x="1140" y="615" text-anchor="end" font-family="system-ui, sans-serif" font-size="13" fill="#3a6048">Pancitapp · 2026</text>

</svg>
